# xmcd
#
# Track frame offsets:
#   150
#   21371
#   35018
#   50609
#   68962
#   90452
#   106495
#   118688
#
# Disc length: 1741 seconds
#
# Revision: 0
# Processed by: cddbd v1.5.1PL2 Copyright (c) Steve Scherf et al.
# Submitted via: GXTranscoder 2.0.1939
#
DISCID=6c06cb08
DTITLE=Disney - Cruso 05
DYEAR=2006
DGENRE=Data
TTITLE0=01
TTITLE1=02
TTITLE2=03
TTITLE3=04
TTITLE4=05
TTITLE5=06
TTITLE6=07
TTITLE7=08
EXTD=
EXTT0=
EXTT1=
EXTT2=
EXTT3=
EXTT4=
EXTT5=
EXTT6=
EXTT7=
PLAYORDER=
